<svg width="402" height="402" viewBox="0 0 402 402" fill="none" xmlns="http://www.w3.org/2000/svg">
<path d="M367.422 98.1368L366.937 98.4314C364.673 99.8176 363.332 101.359 362.913 103.055C362.267 104.719 362 107.987 362.114 112.859C362.163 114.644 362.23 116.471 362.32 118.338L366.466 202.08C368.037 222.554 369.113 238.517 369.694 249.97C370.064 257.979 370.251 262.651 370.254 263.989C370.367 267.661 370.456 274.694 370.524 285.089L370.667 289.647C370.735 290.911 370.84 291.882 370.981 292.559C371.055 293.259 371.313 293.577 371.753 293.513C372.806 293.557 376.243 282.412 382.065 260.077L376.871 143.428C376.985 137.821 377.371 135.022 378.027 135.031C378.269 134.459 379.69 136.111 382.288 139.983C382.844 140.438 383.238 140.355 383.468 139.736C383.978 138.984 384.135 134.665 383.939 126.778L367.422 98.1368Z" fill="#B2FFE2" fill-opacity="0.015"/>
<path d="M401.455 177.092L401.533 176.856C401.853 175.997 401.882 175.218 401.62 174.518C401.13 173.411 400.529 172.744 399.819 172.517C398.762 172.025 397.322 172.626 395.496 174.318C393.173 176.786 390.985 179.919 388.933 183.713C387.235 186.964 386.26 188.951 386.01 189.674C385.421 191.041 384.893 192.4 384.432 193.753C383.057 197.879 382.431 201.506 382.557 204.633C382.683 207.76 383.463 209.941 384.897 211.178C386.13 212.182 387.889 212.302 390.172 211.537C392.446 210.798 395.746 209.049 400.075 206.294L401.647 196.9C397.39 199.172 394.528 200.25 393.063 200.131C392.282 200.067 391.725 199.759 391.396 199.207C391.219 198.935 391.087 198.614 390.998 198.245C390.903 198.108 390.862 197.468 390.876 196.328C391.118 193.811 392.128 190.991 393.908 187.866C394.936 186.018 396.039 184.143 397.221 182.243L401.455 177.092Z" fill="#B2FFE2" fill-opacity="0.015"/>
<path d="M315.77 266.75L316.278 266.788C317.147 267.007 317.657 267.226 317.87 267.368C318.219 267.603 318.612 267.827 318.989 268.143C320.371 269.305 321.344 270.466 321.922 271.614C322.337 272.443 322.635 273.351 322.759 274.345C322.961 275.941 322.893 277.28 322.695 278.372C322.414 279.925 322.257 280.778 322.215 280.941C321.796 282.542 321.526 283.54 321.362 283.924C320.753 285.345 320.111 286.365 319.531 287.067C319.359 287.276 318.837 287.854 317.802 288.666C317.383 288.996 316.906 289.255 316.416 289.511C315.284 290.105 314.061 290.475 312.75 290.368C311.726 290.285 311.081 289.884 310.736 289.44C310.104 288.629 309.675 287.896 309.46 287.21C309.105 286.07 308.795 284.758 308.628 283.251C308.514 282.236 308.489 281.576 308.489 281.282C308.491 280.208 308.537 279.283 308.652 278.509C309.016 276.022 310.063 273.18 311.988 270.107C313.506 267.686 314.834 266.61 315.77 266.75ZM341.735 68.4133L339.967 68.9173C335.541 70.5284 333.265 74.27 333.695 80.1092C341.209 181.786 346.533 256.537 349.111 304.404L340.261 313.539C332.115 319.196 324.066 317.773 316.112 309.272C315.656 307.962 316.034 306.527 317.246 304.968C322.079 301.568 327.391 296.667 331.27 289.162C334.676 282.571 335.231 276.406 334.568 271.631C333.288 262.424 330.781 255.955 326.64 253.253C321.995 250.223 317.626 250.168 314.251 252.014C307.797 255.54 303.522 260.055 301.583 265.559C300.158 269.601 299.402 273.882 299.117 278.331L299.647 292.681L300.348 296.38C300.312 297.871 299.949 298.949 299.385 299.713C298.396 301.054 296.07 302.603 292.272 304.265L265.41 314.475C262.058 316.071 258.778 318.068 255.565 320.466L245.967 329.748C239 339.831 229.271 351.43 216.909 364.665C211.583 370.369 206.767 373.333 202.336 373.446C192.745 369.26 190.593 355.589 195.878 332.431C212.415 318.785 220.815 308.159 220.955 300.554C221.034 296.295 220.086 291.15 218.233 285.12L209.253 262.494C209.179 261.533 209.615 260.916 210.561 260.645L219.07 262.027C219.964 261.946 220.297 261.548 220.071 260.835C213.155 250.461 207.095 242.9 202.122 237.92C197.602 233.389 194.903 239.979 193.786 257.923L209.778 288.97C211.853 295.153 212.079 299.247 210.463 301.254C209.633 305.222 202.314 311.856 188.044 320.398C174.96 328.232 164.877 332.294 158.658 334.587C132.141 344.368 112.999 344.866 100.101 335.785C94.1548 331.6 89.2752 325.65 85.7662 317.122C84.382 313.76 84.1203 301.186 85.3029 279.252L76.9899 282.365C68.7739 323.572 72.8547 348.873 89.0716 358.539C101.111 365.716 113.989 368.45 127.887 366.556C140.295 364.867 158.476 356.597 182.42 341.659C181.107 356.302 181.059 364.283 182.278 365.604C183.172 369.917 184.686 373.562 186.815 376.538C188.945 379.512 191.694 381.815 195.06 383.447L200.572 385.395C205.936 386.543 209.156 386.65 210.23 385.719C214.109 384.769 218.485 381.65 223.808 376.85C225.536 375.291 236.192 362.308 255.366 337.386C256.663 335.702 259.187 333.887 262.93 331.941L306.38 312.928C309.317 327.565 318.578 334.845 333.532 331.433C342.731 329.333 349.404 320.224 354.941 307.551C355.426 306.442 356.723 302.723 358.405 296.176L349.119 102.012C353.836 107.741 355.999 106.741 355.47 99.0227C355.352 97.2993 355.069 95.4634 354.113 93.8291C347.481 82.4957 343.148 74.1478 341.735 68.4133Z" fill="#B2FFE2" fill-opacity="0.015"/>
<path d="M313.543 76.0749L313.999 76.6913C316.399 80.084 318.008 81.4837 318.822 80.8924C319.403 80.4194 319.77 79.3415 319.921 77.6587C320.067 75.0668 319.973 73.0699 319.644 71.6663C319.332 70.1057 318.855 68.6343 318.213 67.254L312.572 56.0194C312.039 55.0501 310.583 51.5431 308.204 45.5003L306.727 42.5264C305.329 40.1845 303.832 39.6184 302.237 40.8262C299.707 42.9238 298.332 45.5294 298.109 48.6448C298.119 50.2015 298.697 51.9638 299.844 53.9296C302.803 116.624 304.976 160.218 306.364 184.717C307.485 205.087 308.433 215.885 309.206 217.108C309.352 217.312 309.543 217.163 309.776 216.66C312.36 209.476 314.229 203.935 315.387 200.036C316.715 195.421 317.562 191.2 317.924 187.377L313.324 117.099L312.601 99.9533C312.159 88.0538 312.015 81.3189 312.172 79.7544C312.271 76.3715 312.729 75.1462 313.543 76.0749Z" fill="#B2FFE2" fill-opacity="0.015"/>
<path d="M234.723 132.22L235.237 132.831C237.955 136.171 239.816 137.565 240.82 137.013C241.892 136.819 242.918 133.948 243.901 128.403C241.985 125.464 238.232 118.299 232.643 106.903C231.427 104.612 230.245 102.664 229.093 101.058C226.978 98.0747 225.072 97.3245 223.374 98.8037C222.585 99.2399 221.224 101.211 219.293 104.713C218.473 106.392 218.049 108.086 218.021 109.8C217.965 111.973 218.258 115.104 218.902 119.191C222.628 213.165 225.231 270.569 226.71 291.398C227.831 308.309 228.682 318.605 229.264 322.292C229.859 327.656 230.663 331.348 231.673 333.368C232.236 334.492 233.001 333.852 233.971 331.448C237.009 319.756 239.969 309.842 242.852 301.709L234.723 132.22Z" fill="#B2FFE2" fill-opacity="0.015"/>
<path d="M318.742 220.509L315.924 224.38L305.073 221.048L294.941 234.304L310.771 245.155L318.452 234.483L328.389 239.979L339.68 224.683L323.678 214.464L318.742 220.509Z" fill="#B2FFE2" fill-opacity="0.015"/>
<path d="M265.466 352.828L266.304 352.973C271.397 353.755 274.768 355.168 276.416 357.215C276.968 357.717 277.804 358.863 278.924 360.65L284.742 371.394C286.093 373.51 287.055 374.748 287.623 375.111C289.096 376.497 291.051 376.48 293.486 375.059C293.705 374.942 293.922 374.824 294.139 374.704C295.201 370.134 295.833 367.085 296.037 365.555C296.283 364.028 296.461 362.498 296.568 360.964L296.812 352.531C296.849 351.438 297.068 350.469 297.473 349.623C298.119 348.588 299.21 348.416 300.746 349.104C301.519 349.49 302.188 349.957 302.75 350.505L305.951 354.028C306.333 354.33 306.763 354.454 307.24 354.404C307.878 354.311 308.665 353.896 309.598 353.158C310.292 350.876 310.744 349.259 310.949 348.307C311.907 344.147 311.692 340.95 310.307 338.718C308.347 335.572 306.023 333.802 303.332 333.412C299.588 332.769 296.467 334.035 293.968 337.21C293.055 338.393 292.194 339.653 291.384 340.99C290.853 347.316 289.798 350.796 288.216 351.428C287.792 351.502 287.392 351.329 287.014 350.913C284.698 347.588 283.168 345.701 282.424 345.25C281.078 344.116 279.508 343.152 277.713 342.359C272.502 340.147 268.415 339.796 265.455 341.308C264.229 341.962 263.213 342.844 262.405 343.959C261.283 345.676 260.769 346.993 260.864 347.908C260.887 348.956 261.296 349.842 262.089 350.564C262.704 351.184 263.83 351.938 265.466 352.828Z" fill="#B2FFE2" fill-opacity="0.015"/>
<path d="M275.704 60.1313L276.668 60.8428C281.493 65.8814 283.726 63.2002 283.368 52.8032C279.646 46.3727 275.179 37.8116 269.97 27.1199C265.916 20.8716 262.925 23.6303 260.998 35.396C260.695 38.2768 260.78 43.1565 261.253 50.0406C268.475 131.181 272.443 184.572 273.161 210.211C273.403 214.823 272.92 218.175 271.713 220.266C269.594 222.521 266.372 224.111 262.041 225.039C256.95 226.42 250.319 224.33 242.152 218.77C221.777 205.35 166.372 169.815 75.9372 112.167C72.8392 109.988 71.424 108.425 71.6896 107.483C70.0301 105.513 76.6022 101.268 91.4019 94.7499C127.112 79.8959 152.316 69.9642 167.015 64.9489C194.773 55.1936 214.297 51.2852 225.588 53.2258C235.566 55.1141 238.614 60.6354 234.735 69.7897C233.093 73.0118 230.85 75.7589 228.004 78.031L211.917 88.713C209.796 90.2833 207.675 92.3925 205.556 95.0407C201.618 100.281 197.648 106.63 193.643 114.092C189.044 122.461 187.491 126.24 188.988 125.427C207.124 106.072 224.314 89.8141 240.564 76.6526C242.635 74.648 244.436 72.5291 245.971 70.2957C252.312 58.6793 251.213 48.3036 242.675 39.1648C237.584 31.7823 210.019 35.6829 159.978 50.8646C107.062 67.188 73.7504 81.507 60.0422 93.8213C57.6072 96.0198 55.337 99.8118 53.2355 105.203C52.8943 107.314 53.569 109.286 55.2614 111.118C59.1426 115.371 63.7275 119.353 69.0181 123.062L115.771 156.746C124.285 163.188 131.864 169.555 138.507 175.846C154.775 191.144 163.535 204.974 164.79 217.341C164.338 222.077 161.793 225.381 157.15 227.251C156.568 227.69 154.044 228.506 149.581 229.698C134.768 232.352 125.654 234.267 122.24 235.448C114.807 237.889 109.437 240.205 106.126 242.398C101.748 245.021 97.3381 248.253 92.8985 252.097C76.4122 267.347 66.8488 275.846 64.2083 277.596C58.4951 282.148 52.683 284.946 46.774 285.989C40.9813 286.625 37.6623 283.436 36.817 276.423C36.2122 261.283 39.314 246.968 46.1187 233.476L38.5987 229.648C30.6521 248.33 26.6275 261.938 26.5208 270.468C26.7069 284.837 29.9678 294.191 36.2975 298.53C42.5749 303.468 51.5004 303.357 63.0762 298.197C65.7089 297.177 69.8401 294.42 75.4719 289.926C77.3369 288.569 84.6185 281.54 97.3148 268.836C101.456 265.059 105.808 261.827 110.376 259.14C115.885 256.159 120.09 254.272 122.986 253.481L151.619 245.855C154.424 245.145 157.638 243.354 161.265 240.483C164.005 238.591 167.263 232.885 171.042 223.366C173.254 218.291 174.279 214.055 174.119 210.656C174.111 207.997 173.483 205.116 172.234 202.014C170.623 198.187 167.616 192.708 163.214 185.576C162.33 183.73 162.153 182.885 162.684 183.042C164.127 183.153 167.38 185.093 172.442 188.862L220.548 224.878C228.981 230.834 236.448 235.274 242.947 238.197C248.803 240.863 254.54 241.826 260.156 241.086C269.444 239.1 275.844 236.167 279.355 232.286C284.397 227.819 286.528 216.858 285.747 199.404L275.704 60.1313Z" fill="#B2FFE2" fill-opacity="0.015"/>
<path d="M158.264 91.3515L158.235 93.199C158.109 101.818 158.46 108.043 159.29 111.876L165.23 133.957C165.602 136.038 165.096 137.747 163.714 139.085C153.916 141.187 141.724 147.229 127.139 157.21C116.915 164.047 109.538 169.379 105.009 173.202C103.018 174.671 94.8003 181.927 80.3573 194.969C76.7825 198.014 72.9885 201.021 68.9736 203.986C57.3881 212.347 49.333 216.449 44.8101 216.294C39.1744 216.509 37.2319 210.247 38.9806 197.505C40.1438 190.471 41.7994 184.372 43.9455 179.208C45.0195 176.557 46.2331 173.911 47.5843 171.269C55.7325 156.351 59.3694 149.284 58.4951 150.071C59.3597 147.47 58.6657 146.756 56.4149 147.933C47.7898 153.737 40.6711 162.572 35.0587 174.437C28.3354 189.409 24.8148 203.198 24.4988 215.804C24.8846 224.661 27.2265 230.252 31.5245 232.575C37.8445 236.412 45.1397 236.956 53.4119 234.215C59.3501 232.17 65.3928 228.769 71.5403 224.012C74.6073 221.668 77.7169 219.074 80.8633 216.232L83.2595 214.057C100.663 197.462 112.841 186.4 119.797 180.873C131.693 171.244 140.878 164.794 147.35 161.523C155.04 157.291 162.289 155.203 169.099 155.259C174.683 154.982 183.112 157.117 194.385 161.657C196.113 162.023 197.381 161.812 198.191 161.021C200.641 157.559 201.167 152.844 199.767 146.877C184.434 140.477 175.041 131.966 171.585 121.343C169.142 114.047 167.8 105.525 167.564 95.7736C175.536 99.3291 178.147 99.0615 175.4 94.9671L162.533 75.6813C161.089 73.5527 160.063 72.4554 159.46 72.3914C157.376 73.0389 154.943 78.5602 152.165 88.9572C152.107 89.8897 152.311 90.4306 152.77 90.5779C152.857 90.7466 154.687 91.0045 158.264 91.3515Z" fill="#B2FFE2" fill-opacity="0.015"/>
<path d="M112.244 200.312L101.215 215.782L118.322 226.8L125.993 214.456L138.907 220.485L147.07 204.261L132.209 195.463L123.9 206.822L112.244 200.312Z" fill="#B2FFE2" fill-opacity="0.015"/>
<path d="M152.037 279.638L140.351 293.906C145.489 297.89 150.626 301.874 155.763 305.858C159.493 300.504 163.225 295.149 166.955 289.792L152.037 279.638Z" fill="#B2FFE2" fill-opacity="0.015"/>
<path d="M240.965 363.971L241.062 363.938C243.408 363.107 245.702 362.56 247.941 362.294C249.891 362.155 250.905 362.531 250.984 363.423L250.992 363.671L250.792 365.365L250.38 367.001C250.034 368.072 249.587 369.117 249.04 370.132C248.491 371.148 247.883 372.147 247.214 373.128L243.065 378.98L242.101 380.463C241.13 382.069 240.574 383.201 240.434 383.858C239.87 385.473 239.709 386.844 239.951 387.966C240.054 388.292 240.238 388.521 240.504 388.652L240.973 388.747L242.642 388.493L244.108 387.914C245.04 387.419 245.897 386.762 246.681 385.94L247.811 384.63C248.53 383.689 249.199 382.668 249.815 381.569C250.43 380.469 251.01 379.345 251.552 378.197L253.859 373.29C255.709 369.76 257.006 367.141 257.744 365.433C258.218 364.34 258.609 363.244 258.917 362.153L259.288 360.524L259.468 358.919L259.423 357.347C259.065 354.875 258.233 353.344 256.928 352.75C256.248 352.419 255.47 352.254 254.592 352.26L253.319 352.359C252.436 352.493 251.525 352.741 250.587 353.097C247.615 354.272 245.085 356.005 242.999 358.297C242.355 359.028 241.84 359.772 241.45 360.528L240.989 361.653C240.855 362.12 240.847 362.893 240.965 363.971Z" fill="#B2FFE2" fill-opacity="0.015"/>
<path d="M127.523 316.629L127.602 316.649C128.3 316.802 128.766 316.881 129.004 316.887C130.179 316.85 131.404 316.897 132.682 317.027C134.273 317.255 135.196 317.436 135.448 317.57C136.759 318.083 137.449 318.45 137.517 318.669C137.852 318.985 138.067 319.359 138.158 319.789L138.178 320.483L137.918 321.6L137.439 322.674L136.766 323.696C136.255 324.361 135.646 324.973 134.942 325.539C132.697 327.29 130.169 328.348 127.362 328.715C124.974 328.905 123.192 328.587 122.017 327.761L120.443 326.452L119.293 324.841L118.526 322.969L118.097 320.885L117.965 318.636L118.087 316.269L118.421 313.83C118.714 312.18 119.09 310.544 119.549 308.923C119.666 308.314 120.497 305.757 122.042 301.25L122.263 300.213L122.975 295.76L123.223 294.734C123.558 293.365 124.214 292.437 125.187 291.946C125.891 291.749 126.317 291.675 126.462 291.723L127.876 292.037L128.729 292.927L129.111 294.304L129.113 296.085C128.989 297.409 128.731 298.891 128.341 300.531C127.317 304.74 126.738 307.275 126.602 308.138L126.23 310.587L126.114 312.855L126.34 314.853L126.399 315.034C126.631 315.546 127.007 316.077 127.523 316.629Z" fill="#B2FFE2" fill-opacity="0.015"/>
<path d="M185.539 288.29L185.621 288.309C186.317 288.463 186.784 288.542 187.022 288.548C188.195 288.511 189.42 288.558 190.698 288.687C192.292 288.916 193.212 289.096 193.464 289.23C194.777 289.744 195.467 290.11 195.535 290.329C195.87 290.645 196.084 291.02 196.177 291.45L196.196 292.144C196.13 292.656 196.023 293.166 195.876 293.678C195.849 293.945 195.545 294.688 194.965 295.907C194.447 296.87 193.813 297.733 193.059 298.499C191.431 300.069 189.618 300.932 187.623 301.085C181.801 301.376 178.108 299.224 176.544 294.629L176.115 292.547L175.984 290.298L176.106 287.929L176.439 285.491C176.732 283.841 177.108 282.205 177.567 280.584C177.684 279.975 178.514 277.418 180.059 272.911L180.28 271.873L180.991 267.42L181.241 266.395C181.577 265.028 182.23 264.099 183.205 263.607C183.909 263.409 184.333 263.336 184.481 263.384L185.894 263.7L186.747 264.588L187.129 265.964L187.131 267.748C187.007 269.07 186.749 270.551 186.359 272.191C185.336 276.4 184.756 278.936 184.62 279.799L184.248 282.249L184.13 284.515L184.359 286.516L184.417 286.696C184.649 287.206 185.024 287.737 185.539 288.29Z" fill="#B2FFE2" fill-opacity="0.015"/>
<path d="M55.8934 258.756L55.9748 258.801L57.2195 259.396C58.72 259.774 60.1255 260.234 61.438 260.771C63.0975 261.542 64.0242 262.046 64.22 262.279C64.7492 262.665 65.166 263.08 65.4704 263.524L65.8077 264.214L65.9047 264.945L65.7263 265.714C65.4878 266.519 64.7143 267.688 63.4018 269.223C62.6012 270.065 61.7055 270.772 60.7168 271.342C58.7355 272.469 56.6437 272.843 54.4414 272.465C51.5043 271.951 49.0597 270.668 47.1074 268.613L45.8628 266.829L45.1397 264.852L44.8819 262.715L45.0311 260.459L45.5294 258.117C45.9811 256.527 46.5879 254.928 47.3536 253.319C48.1194 251.709 48.9666 250.139 49.8952 248.608C50.1957 248.001 51.7602 245.63 54.5906 241.493L55.085 240.547L56.9674 236.392L57.4734 235.429C58.15 234.141 58.9933 233.3 60.0073 232.903C60.8855 232.643 61.7889 232.792 62.7175 233.348L63.4658 234.258L63.712 235.5L63.5337 237.018C63.2758 238.121 62.8396 239.333 62.2251 240.651L61.2499 242.652L57.9775 248.706C57.2815 249.998 56.7193 251.169 56.2928 252.217C55.8139 253.501 55.6802 255.682 55.8934 258.756Z" fill="#B2FFE2" fill-opacity="0.015"/>
<path d="M74.7721 173.956L74.8554 173.998C75.5262 174.342 76.0632 174.564 76.4665 174.663C76.6351 174.762 78.0096 174.898 80.59 175.069C80.9777 175.115 81.3577 175.183 81.726 175.276C82.6256 175.571 83.1471 175.796 83.2867 175.951C84.004 176.459 84.5255 177.176 84.8512 178.099C85.1361 179.157 85.1982 179.896 85.0353 180.318C84.0544 182.868 82.6159 184.789 80.7199 186.08C79.7758 186.763 78.7696 187.267 77.6994 187.592C76.8619 187.837 75.9915 187.957 75.0861 187.955C73.0719 188.063 70.7145 187.319 68.0139 185.718C66.9205 184.905 66.3021 184.39 66.1586 184.171L64.85 182.401L64.0629 180.419L63.7411 178.267L63.8303 175.98L64.2704 173.597L65.0071 171.154C65.5964 169.507 66.3079 167.87 67.1396 166.246C67.9732 164.621 68.8514 163.057 69.7762 161.556L72.9788 156.519L73.4577 155.542L75.2606 151.254C75.5727 150.558 75.9139 149.932 76.2842 149.374C76.6545 148.813 77.0733 148.369 77.5366 148.04L78.283 147.666C78.9383 147.462 79.5664 147.491 80.1654 147.753C81.3616 148.521 81.633 150.469 80.9758 153.596C80.8808 154.226 80.4931 155.378 79.8184 157.053C79.5218 157.747 79.2097 158.435 78.8762 159.115C77.1547 162.494 76.1446 164.532 75.8519 165.23C75.2218 166.68 74.712 168.029 74.3242 169.274C73.983 170.294 73.8648 171.292 73.9714 172.267C74.0645 172.948 74.3301 173.51 74.7721 173.956Z" fill="#B2FFE2" fill-opacity="0.015"/>
<path d="M29.549 127.573L29.6266 127.616C30.2586 127.969 30.7665 128.198 31.1503 128.308C31.3093 128.407 32.6237 128.583 35.0955 128.833C35.4658 128.89 35.8283 128.969 36.1792 129.07C37.0342 129.382 37.5246 129.615 37.6545 129.768C38.3273 130.28 38.8042 130.985 39.0853 131.881C39.3237 132.907 39.3586 133.618 39.188 134.017C38.6219 135.722 37.4025 137.356 35.5317 138.916C33.6551 140.351 31.7203 141.055 29.7293 141.026C28.6437 141.02 27.5599 140.853 26.4801 140.524C25.945 140.361 25.4216 140.163 24.9098 139.932C23.6613 139.3 22.9401 138.885 22.7443 138.69C21.6761 137.848 21.0771 137.315 20.9433 137.092L19.7452 135.349L19.0551 133.422L18.8185 131.346L18.9794 129.153L19.4816 126.881L20.2687 124.561C20.889 123 21.6257 121.453 22.4768 119.92C23.3298 118.388 24.2255 116.917 25.1618 115.505L28.3994 110.785L28.886 109.873L30.7393 105.853C31.0592 105.199 31.4024 104.61 31.7707 104.085C33.0812 102.437 34.353 101.942 35.5899 102.602C36.7123 103.377 36.9082 105.256 36.1753 108.235C36.061 108.836 35.6538 109.93 34.9482 111.514C34.6438 112.171 34.32 112.822 33.9788 113.464C32.2127 116.649 31.1775 118.572 30.8731 119.231C30.2198 120.604 29.6847 121.881 29.2718 123.064C28.9112 124.031 28.7658 124.985 28.8356 125.925C28.9015 126.581 29.138 127.129 29.549 127.573Z" fill="#B2FFE2" fill-opacity="0.015"/>
<path d="M65.4937 71.9727L65.5673 72.0192C66.1664 72.3895 66.651 72.6357 67.0194 72.7598C67.1687 72.8644 68.4404 73.0932 70.8347 73.448L71.8796 73.7271C72.6958 74.0683 73.163 74.3165 73.2832 74.4735C73.9132 75.0008 74.3456 75.7065 74.5801 76.5925C74.7663 77.6006 74.7682 78.2946 74.586 78.6765C73.479 80.9816 71.994 82.6643 70.129 83.7248C69.1965 84.2909 68.2194 84.6864 67.1977 84.9074C66.3447 85.0799 65.5014 85.1245 64.6717 85.045C62.3899 84.8027 60.3194 83.971 58.4602 82.5538C57.4056 81.6543 56.8162 81.0863 56.6922 80.8517L55.6046 79.103L55.021 77.1973L54.8834 75.1656L55.1374 73.0389L55.7267 70.8502L56.5972 68.6265C57.2699 67.1357 58.057 65.6623 58.9546 64.2103C59.8541 62.7582 60.7905 61.3663 61.7656 60.0363C62.4732 59.0515 63.6791 57.4773 65.3851 55.3099L70.1484 48.7553C70.8133 47.7666 71.5946 47.4952 72.4903 47.9449C73.5468 48.7514 73.6535 50.5873 72.8063 53.4546C72.6706 54.0323 72.2227 55.0773 71.4667 56.5894C71.139 57.2156 70.7959 57.8321 70.4353 58.4428L67.1551 63.9175C66.4572 65.2223 65.8814 66.4417 65.4258 67.5738C65.0323 68.4986 64.8481 69.4214 64.8733 70.3384C64.9082 70.9801 65.1137 71.5248 65.4937 71.9727Z" fill="#B2FFE2" fill-opacity="0.015"/>
<path d="M195.63 82.7923L195.715 82.835C196.384 83.1781 196.921 83.401 197.324 83.4999C197.493 83.5988 198.867 83.7345 201.448 83.9051C201.836 83.9516 202.216 84.0214 202.586 84.1145C203.485 84.4072 204.005 84.6321 204.144 84.7872C204.862 85.2971 205.383 86.0124 205.709 86.9352C205.994 87.9937 206.056 88.7324 205.893 89.155C204.912 91.7043 203.474 93.6255 201.578 94.9167C200.634 95.5991 199.627 96.1031 198.557 96.4288C197.72 96.6731 196.849 96.7933 195.944 96.7914C193.93 96.8999 191.572 96.1555 188.872 94.5541C187.778 93.7418 187.16 93.2262 187.016 93.0071L185.708 91.2371L184.921 89.2558L184.601 87.1039L184.688 84.8163L185.128 82.4337L185.865 79.9909C186.454 78.3431 187.166 76.7069 187.999 75.0823C188.831 73.4577 189.709 71.8932 190.634 70.3927C191.305 69.2837 192.454 67.5021 194.087 65.0478C196.44 61.0968 197.954 58.6211 198.625 57.615C199.317 56.4964 200.116 56.1532 201.023 56.5894C202.219 57.3591 202.491 59.3055 201.836 62.4325C201.739 63.0626 201.351 64.2142 200.676 65.8892C200.382 66.5832 200.068 67.2714 199.736 67.9519C198.013 71.331 197.004 73.3685 196.71 74.0664C196.08 75.5165 195.57 76.8658 195.182 78.1104C194.841 79.1302 194.725 80.1286 194.831 81.1037C194.922 81.7842 195.188 82.3464 195.63 82.7923Z" fill="#B2FFE2" fill-opacity="0.015"/>
<path d="M251.205 99.8835L251.289 99.9262C251.96 100.269 252.497 100.49 252.9 100.591C253.067 100.69 254.441 100.824 257.023 100.996C257.411 101.043 257.791 101.111 258.159 101.204C259.059 101.498 259.578 101.721 259.72 101.878C260.437 102.386 260.959 103.104 261.285 104.026C261.569 105.085 261.63 105.824 261.469 106.244C260.488 108.796 259.049 110.717 257.153 112.008C256.209 112.69 255.201 113.194 254.133 113.52C253.295 113.764 252.425 113.884 251.519 113.883C249.505 113.991 247.148 113.245 244.447 111.645C243.352 110.833 242.733 110.317 242.592 110.098L241.281 108.328L240.496 106.347L240.174 104.195L240.264 101.907L240.704 99.5249L241.44 97.0822C242.03 95.4343 242.741 93.7981 243.573 92.1735C244.407 90.5489 245.285 88.9844 246.21 87.4839C246.878 86.3749 248.03 84.5933 249.66 82.137C252.016 78.188 253.528 75.7123 254.201 74.7062C254.893 73.5876 255.691 73.2444 256.599 73.6806C257.795 74.4483 258.064 76.3967 257.409 79.5237C257.312 80.1538 256.926 81.3054 256.25 82.9784C255.955 83.6744 255.641 84.3626 255.31 85.0431C253.586 88.4222 252.578 90.4597 252.285 91.1576C251.653 92.6077 251.145 93.957 250.758 95.2017C250.416 96.2214 250.298 97.2198 250.405 98.1949C250.496 98.8754 250.763 99.4376 251.205 99.8835Z" fill="#B2FFE2" fill-opacity="0.015"/>
<path d="M259.772 189.302L259.858 189.345C260.526 189.688 261.063 189.909 261.467 190.01C261.635 190.109 263.01 190.242 265.59 190.415C265.98 190.46 266.358 190.529 266.728 190.622C267.628 190.915 268.147 191.14 268.287 191.297C269.006 191.805 269.526 192.52 269.851 193.445C270.136 194.502 270.198 195.242 270.036 195.663C269.055 198.214 267.616 200.135 265.72 201.425C264.776 202.109 263.77 202.613 262.702 202.939C261.864 203.183 260.992 203.303 260.088 203.301C258.072 203.41 255.715 202.663 253.016 201.064C251.921 200.252 251.302 199.736 251.159 199.517L249.85 197.747L249.063 195.766L248.743 193.614L248.831 191.326L249.273 188.942L250.007 186.501C250.599 184.853 251.308 183.217 252.142 181.592C252.973 179.966 253.854 178.403 254.778 176.902L257.981 171.866L258.46 170.887L260.261 166.6C260.575 165.904 260.916 165.278 261.286 164.718C261.657 164.16 262.074 163.716 262.537 163.384L263.283 163.01C263.939 162.808 264.567 162.838 265.166 163.099C266.362 163.867 266.633 165.815 265.978 168.942C265.881 169.57 265.495 170.722 264.819 172.397C264.728 172.767 263.564 175.15 261.331 179.545C260.542 181.264 260.098 182.307 259.997 182.674C259.547 183.988 259.474 186.196 259.772 189.302Z" fill="#B2FFE2" fill-opacity="0.015"/>
<path d="M210.402 173.965L210.486 174.008C211.157 174.351 211.694 174.572 212.097 174.671C212.266 174.77 213.64 174.906 216.22 175.078C216.608 175.123 216.988 175.193 217.356 175.286C218.256 175.578 218.777 175.803 218.917 175.96C219.634 176.468 220.156 177.184 220.482 178.106C220.767 179.165 220.829 179.905 220.666 180.326C219.685 182.877 218.246 184.797 216.35 186.088C215.406 186.772 214.4 187.276 213.33 187.6C212.492 187.844 211.622 187.966 210.717 187.963C208.702 188.073 206.345 187.327 203.644 185.727C202.551 184.913 201.931 184.397 201.789 184.18L200.48 182.408L199.693 180.429L199.372 178.275L199.461 175.989L199.901 173.605L200.637 171.162C201.227 169.516 201.938 167.88 202.77 166.253C203.604 164.629 204.482 163.066 205.407 161.566L208.609 156.527L209.088 155.55L210.891 151.262C211.203 150.568 211.544 149.94 211.915 149.381C212.285 148.823 212.704 148.377 213.167 148.048L213.913 147.673C214.569 147.47 215.197 147.501 215.796 147.763C216.992 148.53 217.263 150.479 216.606 153.606C216.509 154.234 216.123 155.385 215.449 157.06C215.152 157.756 214.84 158.443 214.507 159.123C212.783 162.502 211.775 164.542 211.482 165.238C210.852 166.69 210.342 168.037 209.955 169.284C209.613 170.303 209.495 171.3 209.602 172.275C209.695 172.955 209.96 173.52 210.402 173.965Z" fill="#B2FFE2" fill-opacity="0.015"/>
<path d="M290.306 102.125L290.39 102.167C291.06 102.51 291.595 102.731 292.001 102.832C292.167 102.931 293.542 103.067 296.122 103.237C296.512 103.284 296.892 103.352 297.26 103.445C298.16 103.739 298.679 103.962 298.821 104.119C299.538 104.627 300.06 105.345 300.385 106.268C300.67 107.326 300.73 108.065 300.569 108.485C299.588 111.037 298.15 112.958 296.254 114.249C295.308 114.931 294.302 115.435 293.234 115.761C292.396 116.005 291.526 116.126 290.62 116.124C288.606 116.232 286.249 115.486 283.548 113.886C282.453 113.074 281.834 112.558 281.691 112.339L280.382 110.569L279.597 108.588L279.275 106.436L279.364 104.149L279.804 101.766L280.541 99.3232C281.131 97.6754 281.842 96.0391 282.674 94.4146C283.507 92.79 284.386 91.2255 285.31 89.7249C285.979 88.616 287.131 86.8344 288.761 84.3781C291.115 80.4291 292.629 77.9515 293.301 76.9473C293.992 75.8286 294.792 75.4855 295.698 75.9217C296.896 76.6894 297.165 78.6378 296.51 81.7648C296.413 82.3949 296.027 83.5464 295.351 85.2195C295.056 85.9155 294.742 86.6037 294.41 87.2842C292.687 90.6633 291.679 92.7008 291.386 93.3987C290.754 94.8488 290.244 96.1981 289.856 97.4427C289.517 98.4625 289.399 99.4609 289.506 100.436C289.597 101.116 289.864 101.679 290.306 102.125Z" fill="#B2FFE2" fill-opacity="0.015"/>
<path d="M105.164 113.52C110.517 113.532 114.239 114.346 116.333 115.967C117.609 116.882 118.84 118.093 120.024 119.602L126.769 128.839C127.744 130.111 128.696 131.189 129.623 132.073C131.133 133.606 132.717 134.142 134.374 133.68C135.243 133.413 136.307 132.786 137.563 131.796C137.996 127.376 138.213 123.772 138.215 120.986C138.277 118.719 137.92 114.646 137.145 108.766C137.022 107.656 137.113 106.622 137.422 105.668C138.06 104.521 139.13 104.195 140.634 104.693C141.272 104.864 142.036 105.25 142.924 105.853L146.692 108.995C147.245 109.3 147.786 109.338 148.317 109.113C148.85 108.898 149.509 108.39 150.294 107.59C150.812 104.455 151.08 102.078 151.095 100.457C151.246 96.4172 149.959 93.2145 147.231 90.8455C144.525 88.5501 141.468 87.8115 138.063 88.6335C136.383 89.0949 134.975 89.9246 133.839 91.1246C132.967 91.9718 132.007 93.4568 130.964 95.5797L129.96 97.7471C130.082 101.859 129.995 104.606 129.7 105.986C129.429 107.508 128.961 108.452 128.295 108.825C127.849 109.013 127.385 108.906 126.906 108.503C124.068 105.438 122.236 103.726 121.412 103.371C119.877 102.402 118.136 101.642 116.19 101.087C110.713 99.5268 106.438 99.7846 103.363 101.865C100.704 104.304 99.5035 106.731 99.7652 109.148C99.9378 110.217 100.481 111.064 101.394 111.688C102.111 112.233 103.367 112.843 105.164 113.52Z" fill="#B2FFE2" fill-opacity="0.015"/>
<path d="M168.539 384.634L168.642 384.643C169.189 384.692 169.679 384.703 170.113 384.68C171.424 384.455 172.723 384.314 174.01 384.257C175.061 384.217 176.017 384.255 176.879 384.374C178.756 384.571 179.913 385.295 180.355 386.547L180.419 387.067L180.295 388.402L179.89 389.721L179.237 391.006C178.719 391.851 178.077 392.65 177.312 393.396L176.102 394.464C175.245 395.145 174.326 395.738 173.349 396.244C172.37 396.75 171.373 397.144 170.358 397.425C168.014 398.041 166.038 397.991 164.431 397.274L162.562 396.134L161.095 394.604L159.992 392.741L159.216 390.601L158.728 388.239L158.491 385.713L158.466 383.079C158.52 381.285 158.666 379.494 158.902 377.707C158.931 377.044 159.416 374.207 160.354 369.194L160.428 368.062L160.492 363.237L160.596 362.112C160.688 361.381 160.86 360.736 161.116 360.173L161.589 359.421L162.244 358.857C162.762 358.553 163.398 358.392 164.154 358.376L165.484 358.719L166.364 359.689L166.866 361.187L167.068 363.12L167.046 365.394C167.037 366.115 166.82 368.758 166.399 373.321C166.242 375.161 166.189 376.916 166.24 378.581L166.473 380.919L167.013 382.937C167.198 383.377 167.706 383.943 168.539 384.634Z" fill="#B2FFE2" fill-opacity="0.015"/>
<path d="M11.0038 200.573L10.9185 200.515C10.2225 200.056 9.65839 199.748 9.228 199.589C9.05546 199.459 7.55882 199.141 4.74001 198.635L3.51284 198.266C2.55902 197.834 2.01426 197.522 1.87855 197.334C1.15156 196.685 0.666892 195.833 0.422621 194.777C0.238449 193.579 0.261713 192.757 0.492413 192.313C1.29308 190.403 2.84013 188.633 5.12968 187.003C7.35914 185.516 9.6991 184.884 12.1496 185.107C14.9218 185.421 17.4188 186.472 19.6444 188.259C20.9007 189.389 21.5986 190.099 21.7382 190.39L22.9615 192.499L23.5838 194.777L23.6729 197.185L23.2949 199.691L22.5175 202.26L21.4067 204.856C20.5556 206.597 19.5727 208.311 18.456 209.997C17.3413 211.682 16.182 213.295 14.98 214.832L10.8565 219.954C10.43 220.582 10.017 221.265 9.61574 222L7.7934 225.305C7.38046 226.018 6.94427 226.664 6.48868 227.24C4.98622 229.085 3.44111 229.587 1.85141 228.748C0.630058 227.755 0.571898 225.578 1.67693 222.219C1.86111 221.538 2.42719 220.317 3.37714 218.556C3.78619 217.829 4.21657 217.11 4.6644 216.403C6.97722 212.896 8.33622 210.777 8.74334 210.046C9.61767 208.526 10.3447 207.105 10.9224 205.781C11.4245 204.701 11.6746 203.617 11.6785 202.532C11.661 201.772 11.4361 201.118 11.0038 200.573Z" fill="#B2FFE2" fill-opacity="0.015"/>
<path d="M111.006 38.9651L109.404 39.5854C98.3209 43.7187 92.5689 46.9853 92.1483 49.3854C90.7214 55.3545 90.3938 59.7455 91.1615 62.5605C91.9234 64.5534 93.8407 65.1331 96.9115 64.2975C98.1794 63.7683 98.9239 63.0645 99.1429 62.1882C99.3252 62.0797 99.4124 60.7536 99.4066 58.2121C99.7323 56.7348 100.073 55.8023 100.43 55.4165C102.313 52.9428 104.684 51.0332 107.543 49.6839C109.532 48.4412 115.059 46.1866 124.124 42.9199C127.525 41.6365 140.911 37.3405 164.288 30.0317C171.662 27.5735 176.416 25.8849 178.548 24.966C188.312 20.8774 194.017 17.2986 195.665 14.2278C196.758 12.1573 194.343 12.0139 188.418 13.7955C185.871 14.5322 181.639 15.9571 175.722 18.0702L111.006 38.9651Z" fill="#B2FFE2" fill-opacity="0.015"/>
<path d="M104.28 283.362L103.581 283.769C100.994 285.213 99.0111 286.741 97.6347 288.352C95.4847 291.144 94.4165 293.352 94.4281 294.975C94.3719 296.302 95.1726 296.855 96.8321 296.628C98.54 296.159 99.8176 295.676 100.669 295.182L104.404 293.158C107.152 291.543 110.001 289.752 112.952 287.786C113.216 287.668 118.541 284.029 128.932 276.867C130.518 275.791 132.385 274.621 134.533 273.357C135.545 272.686 136.144 272.261 136.332 272.085C138.984 269.892 140.448 267.366 140.727 264.505C140.589 262.331 138.418 262.382 134.213 264.652C130.586 266.552 124.506 270.445 115.974 276.334L104.28 283.362Z" fill="#B2FFE2" fill-opacity="0.015"/>
<path d="M188.498 216.061H188.544C189.465 216.296 189.727 216.513 190.078 217.399C190.429 218.285 190.508 218.407 190.479 219.576C190.471 219.877 190.355 221.416 190.299 221.78C190.24 222.145 190.372 221.164 190.285 221.813C190.198 222.461 190.083 222.969 189.767 223.465C189.347 224.12 188.709 224.51 187.879 224.485C187.253 224.467 186.825 224.272 186.545 224.12C186.305 223.989 186.068 223.768 185.846 223.411C185.7 223.176 185.543 222.754 185.45 222.122C185.33 221.311 185.34 220.644 185.388 220.127C185.514 218.807 185.826 217.818 186.352 217.161C186.933 216.43 187.647 216.061 188.498 216.061ZM189.783 210.222L189.374 210.24C184.898 211.304 181.807 213.687 180.239 217.45C179.71 218.712 179.762 219.629 179.857 220.79C179.952 221.951 181.09 223.089 182.307 226.373C182.519 226.941 182.812 227.571 182.866 228.002C182.972 228.849 181.974 229.475 179.785 232.119C178.386 233.808 176.606 235.506 176.606 235.506C169.371 242.262 164.838 246.035 162.24 248.282C157.706 252.206 154.695 254.303 153.133 254.484C150.936 257.343 149.443 259.745 148.699 261.709C148.036 263.456 147.691 264.497 147.72 264.817C147.797 265.705 148.119 266.085 148.59 266.013C151.314 265.608 158.258 260.431 169.572 250.618C181.142 240.584 187.893 233.932 189.667 230.483C193.061 231.491 195.012 231.328 195.824 230.196C196.572 229.151 197.109 227.722 196.894 225.704C196.82 225.026 196.739 224.535 196.299 224.076C195.587 223.333 194.688 222.988 193.918 222.99C194.957 219.095 194.306 215.986 193.431 213.231C192.865 211.444 191.749 210.412 189.783 210.222Z" fill="#B2FFE2" fill-opacity="0.015"/>
<path d="M188.498 216.061H188.544C189.465 216.296 189.727 216.513 190.078 217.399C190.429 218.285 190.508 218.407 190.479 219.576C190.471 219.877 190.355 221.416 190.299 221.78C190.24 222.145 190.372 221.164 190.285 221.813C190.198 222.461 190.083 222.969 189.767 223.465C189.347 224.12 188.709 224.51 187.879 224.485C187.253 224.467 186.825 224.272 186.545 224.12C186.305 223.989 186.068 223.768 185.846 223.411C185.7 223.176 185.543 222.754 185.45 222.122C185.33 221.311 185.34 220.644 185.388 220.127C185.514 218.807 185.826 217.818 186.352 217.161C186.933 216.43 187.647 216.061 188.498 216.061ZM189.783 210.222L189.374 210.24C184.898 211.304 181.807 213.687 180.239 217.45C179.71 218.712 179.762 219.629 179.857 220.79C179.952 221.951 181.09 223.089 182.307 226.373C182.519 226.941 182.812 227.571 182.866 228.002C182.972 228.849 181.974 229.475 179.785 232.119C178.386 233.808 176.606 235.506 176.606 235.506C169.371 242.262 164.838 246.035 162.24 248.282C157.706 252.206 154.695 254.303 153.133 254.484C150.936 257.343 149.443 259.745 148.699 261.709C148.036 263.456 147.691 264.497 147.72 264.817C147.797 265.705 148.119 266.085 148.59 266.013C151.314 265.608 158.258 260.431 169.572 250.618C181.142 240.584 187.893 233.932 189.667 230.483C193.061 231.491 195.012 231.328 195.824 230.196C196.572 229.151 197.109 227.722 196.894 225.704C196.82 225.026 196.739 224.535 196.299 224.076C195.587 223.333 194.688 222.988 193.918 222.99C194.957 219.095 194.306 215.986 193.431 213.231C192.865 211.444 191.749 210.412 189.783 210.222Z" fill="#B2FFE2" fill-opacity="0.015"/>
<path d="M326.511 135.826H326.559C327.478 136.061 327.74 136.278 328.091 137.164C328.442 138.05 328.521 138.172 328.494 139.341C328.486 139.641 328.37 141.181 328.312 141.545C328.255 141.91 328.385 140.929 328.298 141.578C328.211 142.226 328.098 142.734 327.78 143.23C327.362 143.885 326.724 144.275 325.892 144.25C325.268 144.232 324.838 144.036 324.558 143.885C324.318 143.753 324.083 143.532 323.86 143.176C323.713 142.941 323.556 142.518 323.463 141.886C323.345 141.076 323.353 140.409 323.401 139.892C323.527 138.571 323.839 137.583 324.365 136.925C324.946 136.195 325.66 135.826 326.511 135.826ZM327.796 129.987L327.387 130.004C322.911 131.069 319.822 133.451 318.252 137.214C317.725 138.476 317.775 139.393 317.87 140.555C317.965 141.716 319.103 142.854 320.322 146.138C320.532 146.706 320.825 147.336 320.879 147.766C320.987 148.614 319.989 149.24 317.798 151.884C316.399 153.573 314.619 155.271 314.619 155.271C307.384 162.027 302.853 165.8 300.253 168.047C295.719 171.971 292.708 174.068 291.148 174.248C288.951 177.108 287.458 179.51 286.712 181.474C286.051 183.221 285.706 184.262 285.733 184.582C285.812 185.469 286.132 185.849 286.603 185.778C289.327 185.372 296.271 180.196 307.585 170.383C319.155 160.348 325.906 153.697 327.682 150.248C331.074 151.256 333.025 151.093 333.837 149.961C334.587 148.916 335.122 147.487 334.907 145.469C334.835 144.791 334.752 144.3 334.312 143.841C333.602 143.098 332.701 142.751 331.933 142.755C332.97 138.86 332.319 135.751 331.446 132.996C330.88 131.208 329.762 130.177 327.796 129.987Z" fill="#B2FFE2" fill-opacity="0.015"/>
<path d="M54.6217 123.083H54.674C55.6996 123.345 55.9904 123.587 56.38 124.572C56.7697 125.559 56.8589 125.695 56.8259 126.998C56.8182 127.331 56.6883 129.043 56.6243 129.45C56.5603 129.855 56.7057 128.764 56.6088 129.487C56.5119 130.208 56.3858 130.772 56.033 131.325C55.5639 132.054 54.8543 132.486 53.9296 132.459C53.2336 132.437 52.7567 132.222 52.4446 132.052C52.179 131.906 51.9153 131.66 51.6691 131.263C51.5062 131.001 51.3298 130.53 51.2271 129.828C51.0953 128.925 51.1049 128.182 51.1592 127.606C51.3007 126.139 51.6478 125.038 52.2332 124.305C52.8808 123.492 53.6756 123.083 54.6217 123.083ZM56.0543 116.583L55.5988 116.602C50.6183 117.785 47.1772 120.439 45.4286 124.625C44.8411 126.03 44.8974 127.05 45.002 128.343C45.1087 129.636 46.3727 130.902 47.7278 134.558C47.9624 135.19 48.2881 135.892 48.3482 136.371C48.4684 137.315 47.3575 138.009 44.9187 140.952C43.36 142.833 41.3787 144.723 41.3787 144.723C33.3216 152.239 28.2753 156.436 25.3828 158.937C20.3326 163.301 16.9826 165.633 15.2437 165.835C12.7971 169.016 11.1356 171.689 10.304 173.876C9.56727 175.819 9.18148 176.978 9.21443 177.333C9.30167 178.322 9.65839 178.744 10.1818 178.667C13.2139 178.215 20.9452 172.457 33.5426 161.539C46.425 150.376 53.9412 142.974 55.9186 139.136C59.6951 140.26 61.8664 140.08 62.7698 138.82C63.6054 137.656 64.2025 136.067 63.9641 133.82C63.8826 133.064 63.7915 132.519 63.303 132.007C62.512 131.179 61.5097 130.795 60.6528 130.797C61.8122 126.464 61.0871 123 60.1158 119.935C59.4877 117.946 58.2431 116.798 56.0543 116.583Z" fill="#B2FFE2" fill-opacity="0.015"/>
<mask id="mask0_7_5" style="mask-type:luminance" maskUnits="userSpaceOnUse" x="218" y="3" width="30" height="23">
<path d="M218.867 3.51672H247.652V25.8074H218.867V3.51672Z" fill="white"/>
</mask>
<g mask="url(#mask0_7_5)">
<path d="M218.989 17.9442L219.022 17.7232C219.287 15.961 219.607 14.6272 219.983 13.7199C220.047 13.4892 220.4 12.8766 221.042 11.8782C221.594 11.0949 222.23 10.3776 222.946 9.7243C223.94 8.71426 226.013 7.44056 229.161 5.90515C230.857 4.99204 232.596 4.34647 234.376 3.96843C235.69 3.7164 237.009 3.74742 238.331 4.05761C240.091 4.54033 241.14 4.89705 241.477 5.12581C242.164 5.44762 242.819 5.81791 243.441 6.2386C246.14 8.03185 247.435 10.3233 247.326 13.1092L246.936 14.9548L246.082 16.7151L244.821 18.3707L243.214 19.9042L241.324 21.2961L239.211 22.5253L236.935 23.576L234.556 24.4251L232.135 25.0552L229.733 25.4468C228.069 25.6194 226.637 25.6271 225.439 25.4681C224.481 25.3441 223.801 25.1909 223.393 25.0087C223.103 24.7935 222.905 24.462 222.798 24.0122C222.694 23.5644 222.696 23.134 222.804 22.723C222.992 22.281 223.143 22.058 223.254 22.0561C223.382 21.9378 223.841 21.7323 224.63 21.4396C226.786 20.8871 227.932 20.5575 228.064 20.4509C228.783 20.1465 229.252 19.8344 229.473 19.5145C229.931 19.0415 230.179 18.2098 230.218 17.0156C230.132 15.9842 229.779 15.3212 229.163 15.0246C228.426 14.6718 227.461 14.6601 226.265 14.9878C225.491 15.1971 224.716 15.4763 223.938 15.8272L220.943 17.3393C220.559 17.5061 219.908 17.7077 218.989 17.9442Z" fill="#B2FFE2" fill-opacity="0.015"/>
</g>
<path d="M270.164 251.015V250.901C270.107 249.6 270.394 248.352 271.024 247.157C271.798 245.523 272.849 244.075 274.173 242.813C274.609 242.398 275.066 242.018 275.545 241.669L276.278 241.175L277.034 240.737L280.4 238.961C282.115 238.054 283.887 237.418 285.714 237.051C288.406 236.536 291.264 237.185 294.282 239.002C297.233 240.944 298.639 243.336 298.501 246.18L298.111 248.026L297.256 249.786L295.994 251.444L294.389 252.977L292.499 254.367L290.386 255.598L288.108 256.647L285.729 257.496L283.31 258.126L280.908 258.518C279.136 258.681 277.812 258.698 276.931 258.574C276.053 258.495 275.268 258.334 274.576 258.09C274.291 257.902 274.078 257.609 273.94 257.213C273.709 256.271 273.777 255.649 274.142 255.348C274.529 254.986 274.993 254.645 275.536 254.323L278.961 252.456L279.731 251.975C280.219 251.647 280.609 251.3 280.9 250.93C281.191 250.56 281.332 250.155 281.324 249.717C281.315 249.055 280.981 248.53 280.322 248.144C279.94 247.966 279.487 247.879 278.961 247.884C278.73 247.803 277.812 247.966 276.201 248.373C274.386 248.927 272.374 249.808 270.164 251.015Z" fill="#B2FFE2" fill-opacity="0.015"/>
<path d="M275.084 280.202L275.196 280.128C278.009 278.296 279.487 276.637 279.626 275.152C278.114 272.947 275.631 271.515 272.178 270.858C269.559 270.348 266.932 270.557 264.291 271.484C261.988 272.412 259.619 274.089 257.184 276.518C254.042 280.006 252.46 283.362 252.435 286.59C252.402 288.908 252.723 290.725 253.398 292.041C253.933 293.032 254.193 293.453 254.177 293.305C254.325 293.427 254.497 293.534 254.699 293.625C255.779 294.013 256.351 294.263 256.417 294.374C256.647 294.662 256.715 294.864 256.618 294.978C256.347 295.868 255.852 296.76 255.139 297.652C253.985 299.044 251.88 301.174 248.823 304.042L247.842 305.201C247.26 305.955 246.944 306.665 246.894 307.328L247.111 308.279C247.904 309.495 248.856 309.766 249.967 309.092L250.767 308.564L253.485 306.335C258.481 302.971 261.186 301.18 261.597 300.961C265.433 298.582 267.984 297.229 269.247 296.902C270.412 296.578 271.664 296.361 273.004 296.252L280.954 295.703C282.189 295.552 283.282 295.271 284.236 294.862L285.504 294.094L286.448 293.015L287.01 291.566C287.119 291.394 287.14 290.671 287.074 289.397C286.801 287.005 285.855 285.415 284.238 284.628C283.114 284.475 281.495 284.595 279.384 284.992C278.917 285.01 275.693 285.832 269.712 287.458C269.196 287.615 267.855 287.846 265.689 288.152C263.873 288.395 262.715 288.168 262.215 287.472L261.779 286.462C261.692 285.894 261.792 285.328 262.087 284.762C262.725 283.608 263.82 282.592 265.371 281.712C266.922 280.834 268.521 280.272 270.165 280.027L271.579 279.952C272.911 280.247 274.08 280.33 275.084 280.202Z" fill="#B2FFE2" fill-opacity="0.015"/>
<path d="M360.734 356.546L352.448 357.099L344.16 357.651L360.734 356.546Z" fill="#B2FFE2" fill-opacity="0.015"/>
</svg>
